# xmcd CD database file generated by Grip 3.2.0
# 
# Track frame offsets:
#       183
#       21753
#       40048
#       60475
#       73120
#       99743
#       111528
#       131360
#       150388
#       170215
#       191235
# 
# Disc length: 2698 seconds
# 
# Revision: 3
# Processed by: cddbd v1.5.1PL0 Copyright (c) Steve Scherf et al.
# Submitted via: Grip 3.2.0
# 
DISCID=990a880b
DTITLE=Compilations - American Folk Blues Festival '66
DYEAR=1966
DGENRE=Blues
TTITLE0=Roosevelt Sykes - Running The Boogie
TTITLE1=Otis Rush, Little Brother Montgomery - All Your Love
TTITLE2=Little Brother Montgomery - I Keep On Drinking
TTITLE3=Sleepy John Estes, Yank Rachell - You Shouldn't Do It
TTITLE4=Otis Rush, Little Brother Montgomery - My Own Fault
TTITLE5=Junior Wells, Otis Rush - Checkin' On My Baby
TTITLE6=Junior Wells - A Tribute To Sonny Boy Williamson
TTITLE7=Sippie Wallace, Little Brother Montgomery - Suitcase Blues
TTITLE8=Robert Pete Williams - Louise
TTITLE9=Big Joe Turner, Little Brother Montgomery, Otis Rush - Flip, Flop And 
TTITLE9=Fly
TTITLE10=Big Joe Turner, Little Brother Montgomery, Otis Rush - Roll'em Pete
EXTD=
EXTT0=
EXTT1=
EXTT2=
EXTT3=
EXTT4=
EXTT5=
EXTT6=
EXTT7=
EXTT8=
EXTT9=
EXTT10=
PLAYORDER=
